# Blender 3.4.1
# www.blender.org
o Stairs
v -0.500000 0.500000 0.250000
v 0.500000 0.500000 0.250000
v 0.500000 -0.500000 -0.500000
v 0.500000 0.500000 0.500000
v 0.500000 -0.500000 0.500000
v -0.500000 0.500000 0.500000
v -0.500000 -0.500000 0.500000
v -0.500000 -0.500000 -0.500000
v 0.500000 -0.250000 -0.500000
v -0.500000 -0.250000 -0.500000
v 0.500000 0.000000 -0.250000
v 0.500000 -0.250000 -0.250000
v 0.500000 0.250000 0.000000
v 0.500000 0.000000 0.000000
v 0.500000 0.250000 0.250000
v -0.500000 0.250000 0.250000
v -0.500000 0.250000 0.000000
v -0.500000 0.000000 0.000000
v -0.500000 0.000000 -0.250000
v -0.500000 -0.250000 -0.250000
vn -0.0000 1.0000 -0.0000
vn 1.0000 -0.0000 -0.0000
vn -1.0000 -0.0000 -0.0000
vn -0.0000 -1.0000 -0.0000
vn -0.0000 -0.0000 -1.0000
vn -0.0000 -0.0000 1.0000
vt 0.625000 0.187500
vt 0.625000 0.812500
vt 0.375000 0.187500
vt 0.875000 0.687500
vt 0.125000 0.750000
vt 0.625000 0.500000
vt 0.625000 0.562500
vt 0.375000 0.250000
vt 0.625000 0.250000
vt 0.812500 0.750000
vt 0.375000 0.250000
vt 0.625000 0.750000
vt 0.625000 0.250000
vt 0.625000 0.750000
vt 0.562500 0.500000
vt 0.562500 0.750000
vt 0.375000 0.500000
vt 0.375000 0.750000
vt 0.375000 0.500000
vt 0.125000 0.500000
vt 0.375000 0.937500
vt 0.187500 0.750000
vt 0.687500 0.500000
vt 0.187500 0.500000
vt 0.437500 1.000000
vt 0.750000 0.562500
vt 0.687500 0.562500
vt 0.812500 0.625000
vt 0.750000 0.625000
vt 0.812500 0.687500
vt 0.562500 0.812500
vt 0.562500 0.875000
vt 0.500000 0.875000
vt 0.500000 0.937500
vt 0.437500 0.937500
s 0
f 2/3/1 1/1/1 6/13/1 4/8/1
f 15/30/2 2/4/2 4/10/2
f 6/14/3 1/2/3 16/31/3
f 3/7/4 5/12/4 7/18/4 8/19/4
f 18/33/3 19/34/3 20/35/3
f 7/18/3 16/31/3 18/33/3
f 16/31/3 17/32/3 18/33/3
f 8/20/5 10/24/5 9/22/5 3/5/5
f 2/4/5 15/30/5 16/31/5 1/2/5
f 8/21/3 20/35/3 10/25/3
f 16/31/1 15/30/1 13/28/1 17/32/1
f 14/29/5 18/33/5 17/32/5 13/28/5
f 3/6/2 9/23/2 12/27/2
f 18/33/1 14/29/1 11/26/1 19/34/1
f 12/27/5 20/35/5 19/34/5 11/26/5
f 5/12/2 3/7/2 12/27/2
f 14/29/2 13/28/2 15/30/2
f 5/11/6 4/9/6 6/15/6 7/17/6
f 12/27/2 11/26/2 14/29/2
f 9/23/1 10/25/1 20/35/1 12/27/1
f 12/27/2 14/29/2 5/12/2
f 14/29/2 15/30/2 5/12/2
f 15/30/2 4/10/2 5/12/2
f 7/18/3 6/16/3 16/31/3
f 18/33/3 20/35/3 7/18/3
f 20/35/3 8/21/3 7/18/3
